<?xml version="1.0" encoding="UTF-8" standalone="no"?>
<!-- Created with Inkscape (http://www.inkscape.org/) -->

<svg
   xmlns:dc="http://purl.org/dc/elements/1.1/"
   xmlns:cc="http://creativecommons.org/ns#"
   xmlns:rdf="http://www.w3.org/1999/02/22-rdf-syntax-ns#"
   xmlns:svg="http://www.w3.org/2000/svg"
   xmlns="http://www.w3.org/2000/svg"
   xmlns:sodipodi="http://sodipodi.sourceforge.net/DTD/sodipodi-0.dtd"
   xmlns:inkscape="http://www.inkscape.org/namespaces/inkscape"
   width="137.49126"
   height="112.52348"
   id="svg7308"
   version="1.1"
   inkscape:version="0.48.4 r9939"
   sodipodi:docname="Nouveau document 7">
  <defs
     id="defs7310" />
  <sodipodi:namedview
     id="base"
     pagecolor="#ffffff"
     bordercolor="#666666"
     borderopacity="1.0"
     inkscape:pageopacity="0.0"
     inkscape:pageshadow="2"
     inkscape:zoom="1"
     inkscape:cx="60.651626"
     inkscape:cy="19.421571"
     inkscape:document-units="px"
     inkscape:current-layer="layer1"
     showgrid="false"
     inkscape:window-width="511"
     inkscape:window-height="431"
     inkscape:window-x="525"
     inkscape:window-y="103"
     inkscape:window-maximized="0"
     fit-margin-top="0"
     fit-margin-left="0"
     fit-margin-right="0"
     fit-margin-bottom="0" />
  <metadata
     id="metadata7313">
    <rdf:RDF>
      <cc:Work
         rdf:about="">
        <dc:format>image/svg+xml</dc:format>
        <dc:type
           rdf:resource="http://purl.org/dc/dcmitype/StillImage" />
        <dc:title></dc:title>
      </cc:Work>
    </rdf:RDF>
  </metadata>
  <g
     inkscape:label="Calque 1"
     inkscape:groupmode="layer"
     id="layer1"
     transform="translate(-116.95492,-614.62275)">
    <g
       id="g8135"
       style="fill:#003263;fill-opacity:1">
      <g
         transform="matrix(1.25,0,0,-1.25,242.61992,691.55482)"
         id="g6546"
         style="fill:#003263;fill-opacity:1">
        <path
           id="path6548"
           style="fill:#003263;fill-opacity:1;fill-rule:nonzero;stroke:none"
           d="m 0,0 3.248,0 -1.367,4.509 -0.39,0 L 0,0 z M 3.053,8.041 C 3.781,8.058 4.349,7.455 4.579,6.851 l 4.882,-12.78 -4.154,0 -0.976,2.77 -5.378,0 -1.012,-2.77 -3.905,0 4.828,12.78 c 0.231,0.604 0.799,1.19 1.544,1.19 l 2.645,0 z m -12.587,-13.969 0,5.236 4.864,8.733 -4.207,0 -2.734,-5.343 -2.769,5.343 -4.206,0 4.863,-8.733 0,-5.236 4.189,0 z m -15.307,0.018 4.189,0 0,13.952 -4.189,0 0,-13.952 z m -13.09,13.951 4.189,0 0,-10.49 6.035,0 0,-3.479 -7.491,0 c -1.42,0 -2.733,0.657 -2.733,2.858 l 0,11.111 z m -3.963,-13.969 -8.644,0 c -1.616,0 -2.272,0.745 -2.272,1.828 0,0.976 0.39,1.757 1.988,3.568 l 4.473,5.094 -6.284,0 0,3.479 8.201,0 c 1.668,0 2.538,-0.781 2.538,-1.686 0,-0.923 -0.16,-1.633 -2.236,-4.012 l -4.154,-4.792 6.39,0 0,-3.479 z m -22.572,8.147 2.556,0 c 0.834,0 1.473,0.533 1.473,1.225 0,0.71 -0.568,1.296 -1.473,1.296 l -2.556,0 0,-2.521 z m 8.271,-5.875 0.692,-2.272 -4.313,0 -0.372,1.544 c -0.604,2.521 -0.817,3.444 -2.308,3.444 l -1.97,0 0,-4.988 -4.189,0 0,13.969 7.189,0 c 3.567,0 5.2,-1.917 5.2,-4.597 0,-1.243 -0.745,-2.432 -1.97,-3.195 0.905,-0.639 1.313,-1.58 2.041,-3.905 m -27.547,8.839 c 0,2.113 1.172,2.858 2.752,2.858 l 8.307,0 0,-3.301 -6.87,0 0,-2.077 6.55,0 0,-3.16 -6.55,0 0,-2.13 6.87,0 0,-3.301 -8.307,0 c -1.403,0 -2.752,0.745 -2.752,2.911 l 0,8.2 z m -12.601,-2.449 4.384,0 0,5.307 4.189,0 0,-13.951 -4.189,0 0,5.467 -4.384,0 0,-5.467 -4.189,0 0,13.951 4.189,0 0,-5.307 z"
           inkscape:connector-curvature="0" />
      </g>
      <g
         transform="matrix(1.25,0,0,-1.25,207.60017,668.00732)"
         id="g6550"
         style="fill:#003263;fill-opacity:1">
        <path
           id="path6552"
           style="fill:#003263;fill-opacity:1;fill-rule:nonzero;stroke:none"
           d="m 0,0 -3.298,0 c -2.624,0 -3.688,0.762 -3.688,3.493 0,2.731 1.064,3.511 3.688,3.511 l 3.298,0 0,3.476 -4.77,0 c -4.273,0 -6.472,-1.72 -6.472,-6.987 0,-5.266 2.199,-6.969 6.472,-6.969 L 0,-3.476 0,0 z m -27.599,-3.476 6.916,0 c 4.433,0 7.253,1.809 7.253,6.969 0,5.16 -2.82,6.987 -7.253,6.987 l -6.916,0 0,-13.956 z m 4.185,10.463 2.217,0 c 2.766,0 3.511,-0.816 3.511,-3.494 C -17.686,0.816 -18.431,0 -21.197,0 l -2.217,0 0,6.987 z m -11.626,-10.445 4.185,0 0,13.938 -4.185,0 0,-13.938 z"
           inkscape:connector-curvature="0" />
      </g>
      <g
         transform="matrix(1.25,0,0,-1.25,141.48267,659.78495)"
         id="g6554"
         style="fill:#003263;fill-opacity:1">
        <path
           id="path6556"
           style="fill:#003263;fill-opacity:1;fill-rule:nonzero;stroke:none"
           d="m 0,0 4.108,0.38 c 0,0 0.93,0.023 0.66,-0.542 L 3.175,-2.417 6.002,-4.834 c 0,0 0.459,-0.534 -0.432,-0.427 l -4.241,0.745 -2.156,-2.029 c 0,0 -0.465,-0.408 -0.914,0.165 l -1.358,2.884 -4.709,1.344 c 0,0 -1.133,0.351 -0.324,0.643 l 4.074,0.876 -0.605,3.074 c 0,0 -0.003,0.6 0.81,0.131 L 0,0 z"
           inkscape:connector-curvature="0" />
      </g>
      <g
         transform="matrix(1.25,0,0,-1.25,145.7873,639.0427)"
         id="g6558"
         style="fill:#003263;fill-opacity:1">
        <path
           id="path6560"
           style="fill:#003263;fill-opacity:1;fill-rule:nonzero;stroke:none"
           d="m 0,0 4.411,0.655 c 0,0 0.981,0.031 0.628,-0.623 L 2.776,-2.571 5.764,-5.343 c 0,0 0.415,-0.611 -0.506,-0.494 L 0.616,-4.773 -1.621,-7.36 c 0,0 -0.538,-0.472 -0.943,0.184 l -0.907,3.41 -4.991,1.429 c 0,0 -1.157,0.399 -0.266,0.742 l 4.67,0.91 -0.53,3.681 c 0,0 0.07,0.694 0.872,0.155 L 0,0 z"
           inkscape:connector-curvature="0" />
      </g>
      <g
         transform="matrix(1.25,0,0,-1.25,166.77442,619.75233)"
         id="g6562"
         style="fill:#003263;fill-opacity:1">
        <path
           id="path6564"
           style="fill:#003263;fill-opacity:1;fill-rule:nonzero;stroke:none"
           d="m 0,0 5.987,0.916 c 0,0 1.264,0.041 0.639,-0.735 l -3.839,-3.05 3.347,-3.286 c 0,0 0.368,-0.715 -0.774,-0.585 l -5.624,1.39 -3.568,-3.244 c 0,0 -0.813,-0.562 -1.164,0.206 l -0.171,3.927 -6.209,1.755 c 0,0 -1.402,0.468 -0.158,0.882 l 6.489,0.807 0.057,4.689 c 0,0 0.269,0.831 1.169,0.187 L 0,0 z"
           inkscape:connector-curvature="0" />
      </g>
      <g
         transform="matrix(1.25,0,0,-1.25,213.29468,724.35682)"
         id="g6566"
         style="fill:#003263;fill-opacity:1">
        <path
           id="path6568"
           style="fill:#003263;fill-opacity:1;fill-rule:nonzero;stroke:none"
           d="m 0,0 1.107,0.101 c 0,0 0.247,0.049 0.168,-0.09 l -0.06,-0.446 0.339,-0.568 c 0,0 0.12,-0.105 -0.124,-0.119 l -0.841,-0.132 -0.892,-0.44 c 0,0 -0.129,-0.113 -0.235,0.002 l -0.527,0.41 -0.907,0.294 c 0,0 -0.266,0.03 -0.063,0.127 l 0.592,0.494 0.349,0.511 c 0,0 0.012,0.128 0.202,0.065 L 0,0 z"
           inkscape:connector-curvature="0" />
      </g>
      <g
         transform="matrix(1.25,0,0,-1.25,169.45405,712.11732)"
         id="g6570"
         style="fill:#003263;fill-opacity:1">
        <path
           id="path6572"
           style="fill:#003263;fill-opacity:1;fill-rule:nonzero;stroke:none"
           d="m 0,0 3.736,-0.004 c 0,0 0.83,0.048 0.619,-0.419 L 3.798,-2.282 5.714,-4.197 c 0,0 0.442,-0.425 -0.366,-0.363 l -3.544,0.273 -2.122,-1.502 c 0,0 -0.394,-0.346 -0.823,0.11 l -1.59,2.046 -3.967,1.215 c 0,0 -1.009,0.249 -0.312,0.509 l 2.471,1.314 0.403,1.971 c 0,0 -0.029,0.481 0.707,0.132 L 0,0 z"
           inkscape:connector-curvature="0" />
      </g>
      <g
         transform="matrix(1.25,0,0,-1.25,188.63717,720.50158)"
         id="g6574"
         style="fill:#003263;fill-opacity:1">
        <path
           id="path6576"
           style="fill:#003263;fill-opacity:1;fill-rule:nonzero;stroke:none"
           d="m 0,0 2.53,0.211 c 0,0 0.582,0.065 0.432,-0.251 L 2.768,-1.344 3.915,-2.495 c 0,0 0.314,-0.269 -0.259,-0.256 l -2.51,-0.067 -1.48,-0.95 c 0,0 -0.278,-0.245 -0.572,0.045 l -1.153,1.31 -2.632,0.645 c 0,0 -0.682,0.126 -0.205,0.321 l 1.94,0.94 0.061,1.303 c 0,0 -0.013,0.31 0.484,0.114 L 0,0 z"
           inkscape:connector-curvature="0" />
      </g>
      <g
         transform="matrix(1.25,0,0,-1.25,203.90805,723.9292)"
         id="g6578"
         style="fill:#003263;fill-opacity:1">
        <path
           id="path6580"
           style="fill:#003263;fill-opacity:1;fill-rule:nonzero;stroke:none"
           d="m 0,0 1.616,0.122 c 0,0 0.375,0.06 0.268,-0.146 l -0.23,-0.818 0.759,-0.724 c 0,0 0.194,-0.164 -0.176,-0.172 l -1.494,-0.14 -1.105,-0.626 c 0,0 -0.187,-0.165 -0.364,0.013 l -0.846,0.772 -1.46,0.367 c 0,0 -0.42,0.06 -0.113,0.197 l 1.189,0.725 0.16,0.749 c 0,0 0.004,0.193 0.308,0.086 L 0,0 z"
           inkscape:connector-curvature="0" />
      </g>
    </g>
    <g
       style="fill:#003263;fill-opacity:1"
       id="g8161">
      <g
         style="fill:#003263;fill-opacity:1"
         id="g8163"
         transform="matrix(1.25,0,0,-1.25,242.61992,691.55482)">
        <path
           inkscape:connector-curvature="0"
           d="m 0,0 3.248,0 -1.367,4.509 -0.39,0 L 0,0 z M 3.053,8.041 C 3.781,8.058 4.349,7.455 4.579,6.851 l 4.882,-12.78 -4.154,0 -0.976,2.77 -5.378,0 -1.012,-2.77 -3.905,0 4.828,12.78 c 0.231,0.604 0.799,1.19 1.544,1.19 l 2.645,0 z m -12.587,-13.969 0,5.236 4.864,8.733 -4.207,0 -2.734,-5.343 -2.769,5.343 -4.206,0 4.863,-8.733 0,-5.236 4.189,0 z m -15.307,0.018 4.189,0 0,13.952 -4.189,0 0,-13.952 z m -13.09,13.951 4.189,0 0,-10.49 6.035,0 0,-3.479 -7.491,0 c -1.42,0 -2.733,0.657 -2.733,2.858 l 0,11.111 z m -3.963,-13.969 -8.644,0 c -1.616,0 -2.272,0.745 -2.272,1.828 0,0.976 0.39,1.757 1.988,3.568 l 4.473,5.094 -6.284,0 0,3.479 8.201,0 c 1.668,0 2.538,-0.781 2.538,-1.686 0,-0.923 -0.16,-1.633 -2.236,-4.012 l -4.154,-4.792 6.39,0 0,-3.479 z m -22.572,8.147 2.556,0 c 0.834,0 1.473,0.533 1.473,1.225 0,0.71 -0.568,1.296 -1.473,1.296 l -2.556,0 0,-2.521 z m 8.271,-5.875 0.692,-2.272 -4.313,0 -0.372,1.544 c -0.604,2.521 -0.817,3.444 -2.308,3.444 l -1.97,0 0,-4.988 -4.189,0 0,13.969 7.189,0 c 3.567,0 5.2,-1.917 5.2,-4.597 0,-1.243 -0.745,-2.432 -1.97,-3.195 0.905,-0.639 1.313,-1.58 2.041,-3.905 m -27.547,8.839 c 0,2.113 1.172,2.858 2.752,2.858 l 8.307,0 0,-3.301 -6.87,0 0,-2.077 6.55,0 0,-3.16 -6.55,0 0,-2.13 6.87,0 0,-3.301 -8.307,0 c -1.403,0 -2.752,0.745 -2.752,2.911 l 0,8.2 z m -12.601,-2.449 4.384,0 0,5.307 4.189,0 0,-13.951 -4.189,0 0,5.467 -4.384,0 0,-5.467 -4.189,0 0,13.951 4.189,0 0,-5.307 z"
           style="fill:#003263;fill-opacity:1;fill-rule:nonzero;stroke:none"
           id="path8165" />
      </g>
      <g
         style="fill:#003263;fill-opacity:1"
         id="g8167"
         transform="matrix(1.25,0,0,-1.25,207.60017,668.00732)">
        <path
           inkscape:connector-curvature="0"
           d="m 0,0 -3.298,0 c -2.624,0 -3.688,0.762 -3.688,3.493 0,2.731 1.064,3.511 3.688,3.511 l 3.298,0 0,3.476 -4.77,0 c -4.273,0 -6.472,-1.72 -6.472,-6.987 0,-5.266 2.199,-6.969 6.472,-6.969 L 0,-3.476 0,0 z m -27.599,-3.476 6.916,0 c 4.433,0 7.253,1.809 7.253,6.969 0,5.16 -2.82,6.987 -7.253,6.987 l -6.916,0 0,-13.956 z m 4.185,10.463 2.217,0 c 2.766,0 3.511,-0.816 3.511,-3.494 C -17.686,0.816 -18.431,0 -21.197,0 l -2.217,0 0,6.987 z m -11.626,-10.445 4.185,0 0,13.938 -4.185,0 0,-13.938 z"
           style="fill:#003263;fill-opacity:1;fill-rule:nonzero;stroke:none"
           id="path8169" />
      </g>
      <g
         style="fill:#003263;fill-opacity:1"
         id="g8171"
         transform="matrix(1.25,0,0,-1.25,141.48267,659.78495)">
        <path
           inkscape:connector-curvature="0"
           d="m 0,0 4.108,0.38 c 0,0 0.93,0.023 0.66,-0.542 L 3.175,-2.417 6.002,-4.834 c 0,0 0.459,-0.534 -0.432,-0.427 l -4.241,0.745 -2.156,-2.029 c 0,0 -0.465,-0.408 -0.914,0.165 l -1.358,2.884 -4.709,1.344 c 0,0 -1.133,0.351 -0.324,0.643 l 4.074,0.876 -0.605,3.074 c 0,0 -0.003,0.6 0.81,0.131 L 0,0 z"
           style="fill:#003263;fill-opacity:1;fill-rule:nonzero;stroke:none"
           id="path8173" />
      </g>
      <g
         style="fill:#003263;fill-opacity:1"
         id="g8175"
         transform="matrix(1.25,0,0,-1.25,145.7873,639.0427)">
        <path
           inkscape:connector-curvature="0"
           d="m 0,0 4.411,0.655 c 0,0 0.981,0.031 0.628,-0.623 L 2.776,-2.571 5.764,-5.343 c 0,0 0.415,-0.611 -0.506,-0.494 L 0.616,-4.773 -1.621,-7.36 c 0,0 -0.538,-0.472 -0.943,0.184 l -0.907,3.41 -4.991,1.429 c 0,0 -1.157,0.399 -0.266,0.742 l 4.67,0.91 -0.53,3.681 c 0,0 0.07,0.694 0.872,0.155 L 0,0 z"
           style="fill:#003263;fill-opacity:1;fill-rule:nonzero;stroke:none"
           id="path8177" />
      </g>
      <g
         style="fill:#003263;fill-opacity:1"
         id="g8179"
         transform="matrix(1.25,0,0,-1.25,166.77442,619.75233)">
        <path
           inkscape:connector-curvature="0"
           d="m 0,0 5.987,0.916 c 0,0 1.264,0.041 0.639,-0.735 l -3.839,-3.05 3.347,-3.286 c 0,0 0.368,-0.715 -0.774,-0.585 l -5.624,1.39 -3.568,-3.244 c 0,0 -0.813,-0.562 -1.164,0.206 l -0.171,3.927 -6.209,1.755 c 0,0 -1.402,0.468 -0.158,0.882 l 6.489,0.807 0.057,4.689 c 0,0 0.269,0.831 1.169,0.187 L 0,0 z"
           style="fill:#003263;fill-opacity:1;fill-rule:nonzero;stroke:none"
           id="path8181" />
      </g>
      <g
         style="fill:#003263;fill-opacity:1"
         id="g8183"
         transform="matrix(1.25,0,0,-1.25,213.29468,724.35682)">
        <path
           inkscape:connector-curvature="0"
           d="m 0,0 1.107,0.101 c 0,0 0.247,0.049 0.168,-0.09 l -0.06,-0.446 0.339,-0.568 c 0,0 0.12,-0.105 -0.124,-0.119 l -0.841,-0.132 -0.892,-0.44 c 0,0 -0.129,-0.113 -0.235,0.002 l -0.527,0.41 -0.907,0.294 c 0,0 -0.266,0.03 -0.063,0.127 l 0.592,0.494 0.349,0.511 c 0,0 0.012,0.128 0.202,0.065 L 0,0 z"
           style="fill:#003263;fill-opacity:1;fill-rule:nonzero;stroke:none"
           id="path8185" />
      </g>
      <g
         style="fill:#003263;fill-opacity:1"
         id="g8187"
         transform="matrix(1.25,0,0,-1.25,169.45405,712.11732)">
        <path
           inkscape:connector-curvature="0"
           d="m 0,0 3.736,-0.004 c 0,0 0.83,0.048 0.619,-0.419 L 3.798,-2.282 5.714,-4.197 c 0,0 0.442,-0.425 -0.366,-0.363 l -3.544,0.273 -2.122,-1.502 c 0,0 -0.394,-0.346 -0.823,0.11 l -1.59,2.046 -3.967,1.215 c 0,0 -1.009,0.249 -0.312,0.509 l 2.471,1.314 0.403,1.971 c 0,0 -0.029,0.481 0.707,0.132 L 0,0 z"
           style="fill:#003263;fill-opacity:1;fill-rule:nonzero;stroke:none"
           id="path8189" />
      </g>
      <g
         style="fill:#003263;fill-opacity:1"
         id="g8191"
         transform="matrix(1.25,0,0,-1.25,188.63717,720.50158)">
        <path
           inkscape:connector-curvature="0"
           d="m 0,0 2.53,0.211 c 0,0 0.582,0.065 0.432,-0.251 L 2.768,-1.344 3.915,-2.495 c 0,0 0.314,-0.269 -0.259,-0.256 l -2.51,-0.067 -1.48,-0.95 c 0,0 -0.278,-0.245 -0.572,0.045 l -1.153,1.31 -2.632,0.645 c 0,0 -0.682,0.126 -0.205,0.321 l 1.94,0.94 0.061,1.303 c 0,0 -0.013,0.31 0.484,0.114 L 0,0 z"
           style="fill:#003263;fill-opacity:1;fill-rule:nonzero;stroke:none"
           id="path8193" />
      </g>
      <g
         style="fill:#003263;fill-opacity:1"
         id="g8195"
         transform="matrix(1.25,0,0,-1.25,203.90805,723.9292)">
        <path
           inkscape:connector-curvature="0"
           d="m 0,0 1.616,0.122 c 0,0 0.375,0.06 0.268,-0.146 l -0.23,-0.818 0.759,-0.724 c 0,0 0.194,-0.164 -0.176,-0.172 l -1.494,-0.14 -1.105,-0.626 c 0,0 -0.187,-0.165 -0.364,0.013 l -0.846,0.772 -1.46,0.367 c 0,0 -0.42,0.06 -0.113,0.197 l 1.189,0.725 0.16,0.749 c 0,0 0.004,0.193 0.308,0.086 L 0,0 z"
           style="fill:#003263;fill-opacity:1;fill-rule:nonzero;stroke:none"
           id="path8197" />
      </g>
    </g>
  </g>
</svg>
