<?xml version="1.0" standalone="no"?>
<!DOCTYPE svg PUBLIC "-//W3C//DTD SVG 20010904//EN"
 "http://www.w3.org/TR/2001/REC-SVG-20010904/DTD/svg10.dtd">
<svg version="1.0" xmlns="http://www.w3.org/2000/svg"
 width="512.000000pt" height="512.000000pt" viewBox="0 0 512.000000 512.000000"
 preserveAspectRatio="xMidYMid meet">
<metadata>
Created by potrace 1.11, written by Peter Selinger 2001-2013
</metadata>
<g transform="translate(0.000000,512.000000) scale(0.100000,-0.100000)"
fill="#000000" stroke="none">
<path d="M2699 5091 c-3 -79 11 -2214 14 -2218 3 -2 546 343 727 461 36 24
125 81 197 127 73 46 164 104 203 129 39 25 185 118 325 208 140 90 255 167
254 170 0 4 -387 264 -860 578 -799 532 -859 570 -860 545z"/>
<path d="M2293 5042 c-56 -37 -236 -154 -400 -260 -164 -107 -435 -283 -603
-392 -168 -109 -362 -235 -432 -280 -71 -45 -128 -83 -128 -85 0 -3 42 -87 94
-187 51 -101 155 -304 231 -453 134 -263 240 -470 464 -907 60 -117 173 -339
251 -493 133 -262 190 -372 480 -940 162 -316 172 -335 175 -335 4 0 2 477
-10 2805 -2 501 -4 1064 -5 1253 0 188 -3 342 -7 341 -5 0 -54 -31 -110 -67z"/>
<path d="M4443 3630 c-62 -41 -121 -81 -130 -88 -10 -7 -339 -227 -731 -490
-392 -262 -714 -481 -714 -487 -2 -9 100 -80 497 -349 222 -150 759 -514 1008
-683 92 -63 167 -110 168 -106 1 15 16 1704 19 2091 1 101 0 185 -2 186 -2 1
-54 -32 -115 -74z"/>
<path d="M569 3254 c0 -225 -2 -634 -4 -909 -4 -587 -6 -1007 -6 -1053 1 -32
9 -38 234 -186 127 -84 360 -237 517 -341 157 -103 416 -274 575 -379 160
-105 339 -224 399 -263 60 -40 111 -71 113 -69 2 2 -54 118 -125 257 -119 234
-229 451 -800 1579 -697 1378 -892 1762 -898 1769 -2 2 -4 -180 -5 -405z"/>
<path d="M2699 2213 c0 -38 -2 -243 -4 -458 -2 -214 -6 -697 -10 -1073 l-5
-683 87 59 c49 33 438 292 867 576 428 284 776 519 773 522 -3 3 -29 21 -59
40 -29 19 -60 38 -68 44 -8 6 -174 115 -367 243 -194 127 -520 342 -724 477
-204 135 -398 262 -430 283 l-59 37 -1 -67z"/>
</g>
</svg>
